<?xml version="1.0" encoding="UTF-8" standalone="no"?>
<svg
   width="300"
   height="250.81143"
   xml:space="preserve"
   overflow="hidden"
   version="1.1"
   id="svg707"
   sodipodi:docname="cookand.svg"
   inkscape:version="1.2.2 (b0a8486, 2022-12-01)"
   xmlns:inkscape="http://www.inkscape.org/namespaces/inkscape"
   xmlns:sodipodi="http://sodipodi.sourceforge.net/DTD/sodipodi-0.dtd"
   xmlns="http://www.w3.org/2000/svg"
   xmlns:svg="http://www.w3.org/2000/svg"><sodipodi:namedview
     id="namedview709"
     pagecolor="#ffffff"
     bordercolor="#000000"
     borderopacity="0.25"
     inkscape:showpageshadow="2"
     inkscape:pageopacity="0.0"
     inkscape:pagecheckerboard="0"
     inkscape:deskcolor="#d1d1d1"
     showgrid="false"
     inkscape:zoom="0.33427762"
     inkscape:cx="418.81356"
     inkscape:cy="350.00847"
     inkscape:window-width="2560"
     inkscape:window-height="1412"
     inkscape:window-x="0"
     inkscape:window-y="28"
     inkscape:window-maximized="0"
     inkscape:current-layer="svg707" /><defs
     id="defs631"><clipPath
       id="clip0"><rect
         x="1732"
         y="1150"
         width="839"
         height="706"
         id="rect616" /></clipPath><clipPath
       id="clip1"><rect
         x="1732"
         y="1150"
         width="839"
         height="706"
         id="rect619" /></clipPath><clipPath
       id="clip2"><rect
         x="1732"
         y="1152"
         width="839"
         height="702"
         id="rect622" /></clipPath><clipPath
       id="clip3"><rect
         x="1732"
         y="1152"
         width="839"
         height="702"
         id="rect625" /></clipPath><clipPath
       id="clip4"><rect
         x="1732"
         y="1152"
         width="839"
         height="702"
         id="rect628" /></clipPath></defs><g
     clip-path="url(#clip0)"
     transform="matrix(0.35903693,0,0,0.35903693,-621.85196,-413.61054)"
     id="g705"><g
       clip-path="url(#clip1)"
       id="g703"><g
         clip-path="url(#clip2)"
         id="g651"><g
           clip-path="url(#clip3)"
           id="g649"><g
             clip-path="url(#clip4)"
             id="g647"><path
               d="m 278.189,140.811 c 0,75.872 -61.506,137.378 -137.378,137.378 C 64.9402,278.189 3.43443,216.683 3.43443,140.811 3.43443,64.9402 64.9402,3.43443 140.811,3.43443 c 75.872,0 137.378,61.50577 137.378,137.37657 z"
               stroke="#000000"
               stroke-width="10.3033"
               stroke-linecap="butt"
               stroke-linejoin="miter"
               stroke-miterlimit="4"
               stroke-opacity="1"
               fill="#ffffff"
               fill-rule="nonzero"
               fill-opacity="1"
               transform="matrix(1,0,0,1.00054,1734.72,1154.72)"
               id="path633" /><path
               d="m 552.943,552.943 c 0,75.871 -61.506,137.377 -137.377,137.377 -75.872,0 -137.377,-61.506 -137.377,-137.377 0,-75.872 61.505,-137.377 137.377,-137.377 75.871,0 137.377,61.505 137.377,137.377 z"
               stroke="#000000"
               stroke-width="10.3033"
               stroke-linecap="butt"
               stroke-linejoin="miter"
               stroke-miterlimit="4"
               stroke-opacity="1"
               fill="#ffffff"
               fill-rule="nonzero"
               fill-opacity="1"
               transform="matrix(1,0,0,1.00054,1734.72,1154.72)"
               id="path635" /><path
               d="m 827.697,140.811 c 0,75.872 -61.506,137.378 -137.377,137.378 -75.872,0 -137.377,-61.506 -137.377,-137.378 0,-75.8708 61.505,-137.37657 137.377,-137.37657 75.871,0 137.377,61.50577 137.377,137.37657 z"
               stroke="#000000"
               stroke-width="10.3033"
               stroke-linecap="butt"
               stroke-linejoin="miter"
               stroke-miterlimit="4"
               stroke-opacity="1"
               fill="#ffffff"
               fill-rule="nonzero"
               fill-opacity="1"
               transform="matrix(1,0,0,1.00054,1734.72,1154.72)"
               id="path637" /><path
               d="m 177.8,283.168 32.421,-25.483 89.158,113.577 31.047,-24.385 -2.713,93.829 -91.837,-19.611 31.082,-24.384 z"
               stroke="#000000"
               stroke-width="10.3033"
               stroke-linecap="butt"
               stroke-linejoin="miter"
               stroke-miterlimit="10"
               stroke-opacity="1"
               fill="none"
               fill-rule="nonzero"
               transform="matrix(1,0,0,1.00054,1734.72,1154.72)"
               id="path639" /><path
               d="m 624.001,259.608 33.074,24.556 -83.285,112.134 31.699,23.561 -91.252,22.083 -5.221,-93.76 31.7,23.56 z"
               stroke="#000000"
               stroke-width="10.3033"
               stroke-linecap="butt"
               stroke-linejoin="miter"
               stroke-miterlimit="10"
               stroke-opacity="1"
               fill="none"
               fill-rule="nonzero"
               transform="matrix(1,0,0,1.00054,1734.72,1154.72)"
               id="path641" /><path
               d="m 27.6498,-50.3492 -9.5386,26.1204 h 18.5137 z m 100.4172,-1.8916 v 45.39878 h 13.97 c 2.65,0 4.828,-0.28173 6.533,-0.84519 3.043,-1.04643 5.536,-3.05879 7.477,-6.03709 1.548,-2.388 2.663,-5.4468 3.345,-9.1763 0.394,-2.2271 0.591,-4.2931 0.591,-6.1981 0,-7.325 -1.424,-13.0133 -4.27,-17.0648 -2.847,-4.0516 -7.432,-6.0773 -13.754,-6.0773 z m -8.09,-6.8823 h 23.631 c 8.023,0 14.246,2.8844 18.667,8.6531 3.945,5.2053 5.918,11.873 5.918,20.0029 0,6.2785 -1.165,11.9534 -3.495,17.0245 C 160.594,-4.48085 153.538,0 143.529,0 h -23.552 z m -58.7476,0 h 9.4348 l 29.4838,47.7696 v -47.7696 h 7.647 V 0 H 98.7976 L 68.8764,-47.7124 V 0 h -7.647 z m -37.7653,0 h 9.0556 L 53.9715,0 H 45.1976 L 39.2008,-17.7088 H 15.8171 L 9.41784,0 H 1.20742 Z"
               stroke="#000000"
               stroke-width="5.1922"
               stroke-linecap="butt"
               stroke-linejoin="miter"
               stroke-miterlimit="4"
               stroke-opacity="0.99"
               fill="#000000"
               fill-rule="evenodd"
               fill-opacity="1"
               transform="matrix(1,0,0,1.00054,2072,1377.56)"
               id="path643" /><text
               fill="#000000"
               fill-opacity="0"
               font-family="Arial, Arial_MSFontService, sans-serif"
               font-size="59.1231px"
               direction="ltr"
               writing-mode="lr-tb"
               x="1.20742"
               y="-7.3903899"
               id="text645">AND</text></g></g></g><g
         id="g675"><g
           id="g673"><g
             id="g671"><path
               d="m 84.7055,173.686 c 0,-1.494 2.9875,-3.735 7.4688,-3.735 4.4812,0 7.4687,2.241 7.4687,3.735 0,2.75 2.229,4.979 4.979,4.979 2.75,0 4.979,-2.229 4.979,-4.979 0,-7.678 -7.655,-13.693 -17.4267,-13.693 -9.7716,0 -17.4271,6.015 -17.4271,13.693 0,2.75 2.2292,4.979 4.9792,4.979 2.75,0 4.9791,-2.229 4.9791,-4.979 z"
               fill="#c00000"
               fill-rule="nonzero"
               fill-opacity="1"
               transform="translate(1757,1153)"
               id="path653" /><path
               d="m 112.148,44.1776 c 2.92,2.9138 2.925,7.6428 0.011,10.5623 -0.004,0.0038 -0.007,0.0073 -0.011,0.011 -1.945,1.9441 -1.945,5.0969 -10e-4,7.0418 1.944,1.9448 5.097,1.9453 7.042,0.0012 6.806,-6.8053 6.806,-17.8396 0.001,-24.6456 0,-5e-4 -0.001,-7e-4 -0.001,-0.0012 v 0 c -2.916,-2.9166 -2.916,-7.6443 0,-10.5609 1.978,-1.9104 2.033,-5.0625 0.122,-7.0405 -1.91,-1.978 -5.062,-2.0328 -7.04,-0.1224 -0.042,0.0401 -0.083,0.0809 -0.123,0.1224 -6.785,6.8088 -6.785,17.8232 0,24.6319 z"
               fill="#c00000"
               fill-rule="nonzero"
               fill-opacity="1"
               transform="translate(1757,1153)"
               id="path655" /><path
               d="m 146.41,51.731 c -2.916,-2.9165 -2.916,-7.6442 0,-10.5608 1.945,-1.9448 1.945,-5.0981 0,-7.043 -1.945,-1.9449 -5.098,-1.9449 -7.043,0 -6.806,6.8053 -6.807,17.8396 -10e-4,24.6456 0,5e-4 0,8e-4 10e-4,0.0013 2.907,2.92 2.907,7.6407 0,10.5608 -1.944,1.9448 -1.944,5.0976 0.001,7.0417 1.945,1.9442 5.098,1.9437 7.042,-0.0012 6.784,-6.814 6.784,-17.8304 0,-24.6444 z"
               fill="#c00000"
               fill-rule="nonzero"
               fill-opacity="1"
               transform="translate(1757,1153)"
               id="path657" /><path
               d="m 87.2623,58.7741 c 2.9156,2.9165 2.9156,7.6442 0,10.5608 -1.9448,1.9441 -1.9453,5.0969 -0.0012,7.0417 1.9441,1.9449 5.0969,1.9454 7.0418,0.0013 6.8061,-6.8053 6.8061,-17.8396 0.0012,-24.6456 -5e-4,-5e-4 -7e-4,-8e-4 -0.0012,-0.0013 v 0 c -2.9141,-2.9163 -2.9141,-7.642 0,-10.5583 1.9448,-1.9441 1.9453,-5.0969 0.0012,-7.0418 -1.9441,-1.9448 -5.0969,-1.9453 -7.0418,-0.0012 -6.794,6.811 -6.794,17.8358 0,24.6468 z"
               fill="#c00000"
               fill-rule="nonzero"
               fill-opacity="1"
               transform="translate(1757,1153)"
               id="path659" /><path
               d="m 229.042,168.047 c 0,-10.501 -8.355,-20.166 -22.407,-27.916 v 2.689 c 19.145,81.28 -136.1649,59.655 -139.4163,59.501 1.4283,4.181 0.6919,8.799 -1.9667,12.328 17.6974,4.694 35.939,7.022 54.248,6.924 60.402,0 109.542,-23.455 109.542,-52.281 0,-0.16 -0.033,-0.309 -0.048,-0.466 0.01,-0.259 0.048,-0.518 0.048,-0.779 z"
               fill="#c00000"
               fill-rule="nonzero"
               fill-opacity="1"
               transform="translate(1757,1153)"
               id="path661" /><path
               d="m 9.95833,169.292 c 0,13.01 10.04547,24.895 26.58627,34.065 0,-4.377 -0.249,-8.714 3.2887,-13.489 C 32.252,186.117 27.4354,178.41 27.3854,169.951 27.1788,149.412 47.3021,132.608 47.3021,132.608 l -9.9584,4.979 C 20.31,145.703 9.95833,156.361 9.95833,168.047 Z"
               fill="#c00000"
               fill-rule="nonzero"
               fill-opacity="1"
               transform="translate(1757,1153)"
               id="path663" /><path
               d="m 124.554,117.907 c 12.393,-5.617 26.656,-5.358 38.837,0.704 3.275,1.577 6.364,3.512 9.212,5.771 5.111,-0.938 10.377,-0.539 15.288,1.158 -10.098,-12.431 -24.847,-20.183 -40.811,-21.451 l -3.573,-5.3397 -0.249,-0.3411 C 127.834,79.0808 99.6632,75.9163 80.3356,91.3398 c -0.1885,0.1506 -0.3757,0.3025 -0.5619,0.4561 4.1576,0.5136 8.1668,1.8689 11.7832,3.9833 14.7781,-8.0737 33.2161,-4.419 43.7971,8.6808 -2.998,0.407 -5.954,1.074 -8.836,1.992 -7.482,-7.3629 -18.649,-9.5214 -28.3363,-5.477 2.4123,2.493 4.3933,5.37 5.8603,8.514 4.127,-1.137 8.538,-0.565 12.239,1.586 -6.463,3.821 -11.852,9.217 -15.665,15.685 -2.4286,-0.277 -4.8714,-0.417 -7.3164,-0.421 -29.753,0 -54.1509,15.998 -55.9011,41.078 -0.3112,9.854 5.8082,17.011 12.6969,17.589 11.6861,0.045 16.6652,-5.764 17.1258,-12.61 0.5776,-10.374 10.7525,-18.672 24.8958,-18.672 8.407,0 25.162,6.777 24.913,18.672 -1.807,13.459 -14.671,13.195 -24.5495,12.448 -22.9315,-1.668 -37.5429,1.835 -43.4457,10.456 -2.8779,4.141 -3.3512,9.495 -1.2448,14.076 1.1776,2.486 4.1477,3.547 6.6335,2.369 2.4859,-1.177 3.5464,-4.147 2.3689,-6.633 -0.5938,-1.362 -0.4153,-2.936 0.468,-4.131 1.3269,-1.939 7.7401,-8.116 34.5031,-6.146 13.0085,0.951 22.6875,-1.611 28.8395,-7.606 4.089,-3.925 6.39,-9.356 6.366,-15.025 v -0.024 c -0.194,-6.665 -5.044,-27.371 -34.8545,-28.382 -18.5274,0 -32.9421,11.413 -34.6699,25.979 h -0.122 c -2.39,8.465 -9.8587,6.812 -9.9583,-2.315 0.3112,-16.494 21.3083,-31.12 45.9428,-31.12 24.6339,0 45.9429,17.641 45.9429,36.099 0,1.969 -0.583,14.497 -7.618,14.937 -2.75,0.087 -4.909,2.386 -4.823,5.136 0.087,2.75 2.386,4.909 5.136,4.823 0.107,0 0.214,0 0.324,0 13.195,-0.847 16.902,-20.415 16.884,-26.285 -0.496,-6.254 -2.376,-12.318 -5.504,-17.756 0.558,-0.106 1.127,-0.135 1.693,-0.087 0.532,0.054 1.058,0.156 1.571,0.306 0.155,-3.34 0.85,-6.634 2.059,-9.752 -0.9,-0.227 -1.815,-0.385 -2.739,-0.473 -2.996,-0.261 -6.006,0.308 -8.699,1.646 -2.333,-2.558 -4.913,-4.88 -7.702,-6.931 6.716,-5.915 16.372,-7.108 24.325,-3.005 2.306,-2.729 5.061,-5.043 8.146,-6.844 -1.189,-0.766 -2.423,-1.461 -3.694,-2.081 -13.519,-6.461 -28.937,-3.334 -37.436,6.674 -3.217,-1.581 -6.568,-2.875 -10.013,-3.866 3.284,-4.456 7.571,-8.075 12.515,-10.566 z"
               fill="#c00000"
               fill-rule="nonzero"
               fill-opacity="1"
               transform="translate(1757,1153)"
               id="path665" /><path
               d="m 199.167,155.006 c 0,11.688 -9.475,21.162 -21.162,21.162 -11.687,0 -21.161,-9.474 -21.161,-21.162 0,-11.687 9.474,-21.161 21.161,-21.161 11.687,0 21.162,9.474 21.162,21.161 z"
               fill="#c00000"
               fill-rule="nonzero"
               fill-opacity="1"
               transform="translate(1757,1153)"
               id="path667" /><path
               d="m 93.3046,116.418 c 0.9435,0 1.8821,0.027 2.8157,0.062 C 92.6832,105.31 80.8415,99.0408 69.6712,102.478 59.201,105.7 52.9203,116.38 55.194,127.096 66.6508,120.047 79.8531,116.348 93.3046,116.418 Z"
               fill="#c00000"
               fill-rule="nonzero"
               fill-opacity="1"
               transform="translate(1757,1153)"
               id="path669" /></g></g></g><g
         id="g685"><g
           id="g683"><g
             id="g681"><path
               d="m 159.9,80.925 c 2.194,-5.3625 3.413,-11.2125 3.413,-17.55 0,-25.5937 -20.719,-46.3125 -46.313,-46.3125 -25.5937,0 -46.3125,20.7188 -46.3125,46.3125 0,6.0938 1.2188,11.9438 3.4125,17.55 -9.0187,1.7063 -15.6,9.75 -15.6,19.0125 0,10.7255 8.775,19.5005 19.5,19.5005 9.0188,0 16.575,-6.338 18.7688,-14.625 h 1.2187 c 2.1935,8.287 9.7505,14.625 18.7685,14.625 9.019,0 16.575,-6.338 18.769,-14.625 h 1.219 c 2.194,8.287 9.75,14.625 18.769,14.625 10.725,0 19.5,-8.775 19.5,-19.5005 C 175.5,90.4313 168.675,82.6313 159.9,80.925 Z"
               fill="#d86ecc"
               fill-rule="nonzero"
               fill-opacity="1"
               transform="matrix(1.00427,0,0,1,2305,1186)"
               id="path677" /><path
               d="m 117,129.188 c -7.556,0 -14.381,-2.925 -19.5,-7.557 -4.6312,4.144 -10.4812,6.825 -16.8187,7.313 l 17.3062,42.169 1.7063,3.9 17.3062,41.925 33.881,-82.144 2.438,-5.85 c -6.338,-0.488 -12.188,-3.413 -16.819,-7.313 -5.119,4.632 -11.944,7.557 -19.5,7.557 z m 3.656,53.625 c -2.193,0.243 -4.387,0.731 -6.825,0.975 l -3.9,-9.507 c 5.607,-0.487 10.482,-1.462 15.113,-2.193 z m 13.163,-31.932 c -8.288,1.95 -18.769,3.9 -31.444,4.632 l -3.9,-9.507 c 17.794,-0.975 31.444,-3.9 40.219,-6.337 z"
               fill="#d86ecc"
               fill-rule="nonzero"
               fill-opacity="1"
               transform="matrix(1.00427,0,0,1,2305,1186)"
               id="path679" /></g></g></g><g
         id="g701"><g
           id="g699"><g
             id="g697"><path
               d="m 119,132.388 c -16.114,0 -29.2541,13.139 -29.2541,29.254 0,16.114 13.1401,29.502 29.2541,29.502 16.115,0 29.254,-13.14 29.254,-29.254 0,-16.115 -13.139,-29.502 -29.254,-29.502"
               fill="#ffc000"
               fill-rule="nonzero"
               fill-opacity="1"
               transform="matrix(1.0042,0,0,1,2032,1601)"
               id="path687" /><path
               d="m 119,107.348 c -29.9978,0 -54.5416,24.544 -54.5416,54.542 0,29.998 24.5438,54.541 54.5416,54.541 29.998,0 54.542,-24.543 54.542,-54.541 0,-29.998 -24.544,-54.542 -54.542,-54.542 m 0,94.208 c -21.8166,0 -39.6666,-17.85 -39.6666,-39.666 0,-21.817 17.85,-39.667 39.6666,-39.667 21.817,0 39.667,17.85 39.667,39.667 0,21.816 -17.85,39.666 -39.667,39.666"
               fill="#ffc000"
               fill-rule="nonzero"
               fill-opacity="1"
               transform="matrix(1.0042,0,0,1,2032,1601)"
               id="path689" /><path
               d="m 132.388,98.6709 c 9.916,2.2311 19.089,6.4461 27.023,12.6441 l 30.493,-68.9212 -13.883,-20.825 h -8.925 l -19.338,42.3938 z"
               fill="#ffc000"
               fill-rule="nonzero"
               fill-opacity="1"
               transform="matrix(1.0042,0,0,1,2032,1601)"
               id="path691" /><path
               d="M 105.613,98.6709 90.2418,63.9626 70.9042,21.5688 h -8.925 l -13.6354,20.825 30.4938,68.9212 c 7.6854,-5.95 16.8583,-10.413 26.7754,-12.6441"
               fill="#ffc000"
               fill-rule="nonzero"
               fill-opacity="1"
               transform="matrix(1.0042,0,0,1,2032,1601)"
               id="path693" /><path
               d="m 142.552,51.5667 13.636,-29.75 H 81.8126 l 13.6354,29.75 z"
               fill="#ffc000"
               fill-rule="nonzero"
               fill-opacity="1"
               transform="matrix(1.0042,0,0,1,2032,1601)"
               id="path695" /></g></g></g></g></g></svg>
